<svg id="efbsPMYm5LE1" xmlns="http://www.w3.org/2000/svg" xmlns:xlink="http://www.w3.org/1999/xlink" viewBox="0 0 1000 1000" shape-rendering="geometricPrecision" text-rendering="geometricPrecision">
<style><![CDATA[
#efbsPMYm5LE194_to {animation: efbsPMYm5LE194_to__to 1000ms linear infinite normal forwards}@keyframes efbsPMYm5LE194_to__to { 0% {offset-distance: 0%} 3% {offset-distance: 0%;animation-timing-function: cubic-bezier(0.42,0,0.58,1)} 50% {offset-distance: 50.291996%;animation-timing-function: cubic-bezier(0.42,0,0.58,1)} 100% {offset-distance: 100%}} #efbsPMYm5LE207_to {animation: efbsPMYm5LE207_to__to 1000ms linear infinite normal forwards}@keyframes efbsPMYm5LE207_to__to { 0% {offset-distance: 0%;animation-timing-function: cubic-bezier(0.42,0,0.58,1)} 41% {offset-distance: 46.564819%} 50% {offset-distance: 48.188931%;animation-timing-function: cubic-bezier(0.42,0,0.58,1)} 98% {offset-distance: 100%} 100% {offset-distance: 100%}}
]]></style>
<g transform="translate(15.278491-7.639245)"><g><g><path d="M801,576.8h-582.1v-382.9c0-8.8,7.1-15.9,15.9-15.9h550.2c8.8,0,16,7.1,16,15.9v382.9Z" fill="#263238" stroke="#263238" stroke-width="2" stroke-linecap="round" stroke-linejoin="round"/><path d="M634.7,547.2h-511.6v-335.6h511.6v335.6Z" transform="translate(120.5-2)" fill="#92e3a9" stroke="#263238" stroke-width="2" stroke-linecap="round" stroke-linejoin="round"/><path d="M883.3,755.1h-756.7l87.3-176.3h582.1l87.3,176.3Z" fill="#fff" stroke="#263238" stroke-width="2" stroke-linecap="round" stroke-linejoin="round"/><g><path d="M480.6,634.6l1-21.4h-30.7l-2.1,21.4h31.8Z" fill="#263238" stroke="#fff" stroke-width="2" stroke-linecap="round" stroke-linejoin="round"/><path d="M544.2,634.6l-1-21.4h-30.8v21.4h31.8Z" fill="#263238" stroke="#fff" stroke-width="2" stroke-linecap="round" stroke-linejoin="round"/><path d="M709.7,657.6h32.9l-7.7-23h-31.8l6.6,23Z" fill="#263238" stroke="#fff" stroke-width="2" stroke-linecap="round" stroke-linejoin="round"/><path d="M448.8,634.6l2.1-21.4h-30.8l-3,21.4h31.7Z" fill="#263238" stroke="#fff" stroke-width="2" stroke-linecap="round" stroke-linejoin="round"/><path d="M385.3,634.6l4.1-21.4h-30.8l-5.1,21.4h31.8Z" fill="#263238" stroke="#fff" stroke-width="2" stroke-linecap="round" stroke-linejoin="round"/><path d="M671.3,634.6l-5.1-21.4h-30.8l4.2,21.4h31.7Z" fill="#263238" stroke="#fff" stroke-width="2" stroke-linecap="round" stroke-linejoin="round"/><path d="M703.1,634.6l-6.2-21.4h-30.7l5.1,21.4h31.8Z" fill="#263238" stroke="#fff" stroke-width="2" stroke-linecap="round" stroke-linejoin="round"/><path d="M353.5,634.6l5.1-21.4h-30.7l-6.2,21.4h31.8Z" fill="#263238" stroke="#fff" stroke-width="2" stroke-linecap="round" stroke-linejoin="round"/><path d="M576,634.6l-2.1-21.4h-30.7l1,21.4h31.8Z" fill="#263238" stroke="#fff" stroke-width="2" stroke-linecap="round" stroke-linejoin="round"/><path d="M734.9,634.6l-7.2-21.4h-30.8l6.2,21.4h31.8Z" fill="#263238" stroke="#fff" stroke-width="2" stroke-linecap="round" stroke-linejoin="round"/><path d="M639.6,634.6l-4.2-21.4h-30.7l3.1,21.4h31.8Z" fill="#263238" stroke="#fff" stroke-width="2" stroke-linecap="round" stroke-linejoin="round"/><path d="M607.8,634.6l-3.1-21.4h-30.8l2.1,21.4h31.8Z" fill="#263238" stroke="#fff" stroke-width="2" stroke-linecap="round" stroke-linejoin="round"/><path d="M512.4,634.6v-21.4h-30.8l-1,21.4h31.8Z" fill="#263238" stroke="#fff" stroke-width="2" stroke-linecap="round" stroke-linejoin="round"/><path d="M289.9,634.6h-31.8l-8.7,23h32.8l7.7-23Z" fill="#263238" stroke="#fff" stroke-width="2" stroke-linecap="round" stroke-linejoin="round"/><path d="M297.1,613.2h-30.8l-8.2,21.4h31.8l7.2-21.4Z" fill="#263238" stroke="#fff" stroke-width="2" stroke-linecap="round" stroke-linejoin="round"/><path d="M321.7,634.6l6.2-21.4h-30.8l-7.2,21.4h31.8Z" fill="#263238" stroke="#fff" stroke-width="2" stroke-linecap="round" stroke-linejoin="round"/><path d="M240,682.2l-10.1,26.5h35.3l8.8-26.5h-34Z" fill="#263238" stroke="#fff" stroke-width="2" stroke-linecap="round" stroke-linejoin="round"/><path d="M282.2,657.6h-32.8L240,682.2h34l8.2-24.6Z" fill="#263238" stroke="#fff" stroke-width="2" stroke-linecap="round" stroke-linejoin="round"/><path d="M274,682.2l-8.8,26.5h35.3l7.6-26.5h-34.1Z" fill="#263238" stroke="#fff" stroke-width="2" stroke-linecap="round" stroke-linejoin="round"/><path d="M417.1,634.6l3-21.4h-30.7l-4.1,21.4h31.8Z" fill="#263238" stroke="#fff" stroke-width="2" stroke-linecap="round" stroke-linejoin="round"/><path d="M413.8,657.6l3.3-23h-31.8l-4.4,23h32.9Z" fill="#263238" stroke="#fff" stroke-width="2" stroke-linecap="round" stroke-linejoin="round"/><path d="M380.9,657.6l4.4-23h-31.8l-5.5,23h32.9Z" fill="#263238" stroke="#fff" stroke-width="2" stroke-linecap="round" stroke-linejoin="round"/><path d="M446.7,657.6l2.1-23h-31.7l-3.3,23h32.9Z" fill="#263238" stroke="#fff" stroke-width="2" stroke-linecap="round" stroke-linejoin="round"/><path d="M321.7,634.6h-31.8l-7.7,23h32.9l6.6-23Z" fill="#263238" stroke="#fff" stroke-width="2" stroke-linecap="round" stroke-linejoin="round"/><path d="M716.8,682.2h34.1l-8.3-24.6h-32.9l7.1,24.6Z" fill="#263238" stroke="#fff" stroke-width="2" stroke-linecap="round" stroke-linejoin="round"/><path d="M348,657.6l5.5-23h-31.8l-6.6,23h32.9Z" fill="#263238" stroke="#fff" stroke-width="2" stroke-linecap="round" stroke-linejoin="round"/><path d="M282.2,657.6L274,682.2h34.1l7-24.6h-32.9Z" fill="#263238" stroke="#fff" stroke-width="2" stroke-linecap="round" stroke-linejoin="round"/><path d="M644,657.6l-4.4-23h-31.8l3.3,23h32.9Z" fill="#263238" stroke="#fff" stroke-width="2" stroke-linecap="round" stroke-linejoin="round"/><path d="M611.1,657.6l-3.3-23h-31.8l2.2,23h32.9Z" fill="#263238" stroke="#fff" stroke-width="2" stroke-linecap="round" stroke-linejoin="round"/><path d="M709.7,657.6l-6.6-23h-31.8l5.6,23h32.8Z" fill="#263238" stroke="#fff" stroke-width="2" stroke-linecap="round" stroke-linejoin="round"/><path d="M512.4,657.6v-23h-31.8l-1,23h32.8Z" fill="#263238" stroke="#fff" stroke-width="2" stroke-linecap="round" stroke-linejoin="round"/><path d="M578.2,657.6l-2.2-23h-31.8l1.1,23h32.9Z" fill="#263238" stroke="#fff" stroke-width="2" stroke-linecap="round" stroke-linejoin="round"/><path d="M545.3,657.6l-1.1-23h-31.8v23h32.9Z" fill="#263238" stroke="#fff" stroke-width="2" stroke-linecap="round" stroke-linejoin="round"/><path d="M479.6,657.6l1-23h-31.8l-2.1,23h32.9Z" fill="#263238" stroke="#fff" stroke-width="2" stroke-linecap="round" stroke-linejoin="round"/><path d="M578.2,657.6l2.4,24.6h34l-3.5-24.6h-32.9Z" fill="#263238" stroke="#fff" stroke-width="2" stroke-linecap="round" stroke-linejoin="round"/><path d="M611.1,657.6l3.5,24.6h34.1L644,657.6h-32.9Z" fill="#263238" stroke="#fff" stroke-width="2" stroke-linecap="round" stroke-linejoin="round"/><path d="M315.1,657.6l-7,24.6h34l5.9-24.6h-32.9Z" fill="#263238" stroke="#fff" stroke-width="2" stroke-linecap="round" stroke-linejoin="round"/><path d="M644,657.6l4.7,24.6h34.1l-5.9-24.6h-32.9Z" fill="#263238" stroke="#fff" stroke-width="2" stroke-linecap="round" stroke-linejoin="round"/><path d="M512.4,657.6l.1,24.6h34l-1.2-24.6h-32.9Z" fill="#263238" stroke="#fff" stroke-width="2" stroke-linecap="round" stroke-linejoin="round"/><path d="M676.9,657.6l5.9,24.6h34l-7.1-24.6h-32.8Z" fill="#263238" stroke="#fff" stroke-width="2" stroke-linecap="round" stroke-linejoin="round"/><path d="M545.3,657.6l1.2,24.6h34.1l-2.4-24.6h-32.9Z" fill="#263238" stroke="#fff" stroke-width="2" stroke-linecap="round" stroke-linejoin="round"/><path d="M380.9,657.6l-4.7,24.6h34.1l3.5-24.6h-32.9Z" fill="#263238" stroke="#fff" stroke-width="2" stroke-linecap="round" stroke-linejoin="round"/><path d="M348,657.6l-5.9,24.6h34.1l4.7-24.6h-32.9Z" fill="#263238" stroke="#fff" stroke-width="2" stroke-linecap="round" stroke-linejoin="round"/><path d="M479.6,657.6l-1.2,24.6h34.1l-.1-24.6h-32.8Z" fill="#263238" stroke="#fff" stroke-width="2" stroke-linecap="round" stroke-linejoin="round"/><path d="M446.7,657.6l-2.4,24.6h34.1l1.2-24.6h-32.9Z" fill="#263238" stroke="#fff" stroke-width="2" stroke-linecap="round" stroke-linejoin="round"/><path d="M413.8,657.6l-3.5,24.6h34l2.4-24.6h-32.9Z" fill="#263238" stroke="#fff" stroke-width="2" stroke-linecap="round" stroke-linejoin="round"/><path d="M676.9,657.6l-5.6-23h-31.7l4.4,23h32.9Z" fill="#263238" stroke="#fff" stroke-width="2" stroke-linecap="round" stroke-linejoin="round"/><path d="M297.1,613.2l7.4-22h-29.8l-8.4,22h30.8Z" fill="#263238" stroke="#fff" stroke-width="2" stroke-linecap="round" stroke-linejoin="round"/><path d="M266.3,613.2h-28.3l-9.2,21.4h29.3l8.2-21.4Z" fill="#263238" stroke="#fff" stroke-width="2" stroke-linecap="round" stroke-linejoin="round"/><path d="M274.7,591.2h-27.4l-9.3,22h28.3l8.4-22Z" fill="#263238" stroke="#fff" stroke-width="2" stroke-linecap="round" stroke-linejoin="round"/><path d="M258.1,634.6h-29.3l-9.8,23h30.4l8.7-23Z" fill="#263238" stroke="#fff" stroke-width="2" stroke-linecap="round" stroke-linejoin="round"/><path d="M249.4,657.6h-30.4l-10.5,24.6h31.5l9.4-24.6Z" fill="#263238" stroke="#fff" stroke-width="2" stroke-linecap="round" stroke-linejoin="round"/><path d="M240,682.2h-31.5l-11.3,26.5h32.7L240,682.2Z" fill="#263238" stroke="#fff" stroke-width="2" stroke-linecap="round" stroke-linejoin="round"/><path d="M766.7,634.6l8.8,23h29.1l-9.8-23h-28.1Z" fill="#263238" stroke="#fff" stroke-width="2" stroke-linecap="round" stroke-linejoin="round"/><path d="M785,682.2h30.1l-10.5-24.6h-29.1l9.5,24.6Z" fill="#263238" stroke="#fff" stroke-width="2" stroke-linecap="round" stroke-linejoin="round"/><path d="M795.1,708.7h31.3l-11.3-26.5h-30.1l10.1,26.5Z" fill="#263238" stroke="#fff" stroke-width="2" stroke-linecap="round" stroke-linejoin="round"/><path d="M543.2,613.2l-1.1-22h-29.7v22h30.8Z" fill="#263238" stroke="#fff" stroke-width="2" stroke-linecap="round" stroke-linejoin="round"/><path d="M766.7,634.6h28.1l-9.1-21.4h-27.3l8.3,21.4Z" fill="#263238" stroke="#fff" stroke-width="2" stroke-linecap="round" stroke-linejoin="round"/><path d="M750.9,682.2h34.1l-9.5-24.6h-32.9l8.3,24.6Z" fill="#263238" stroke="#fff" stroke-width="2" stroke-linecap="round" stroke-linejoin="round"/><path d="M327.9,613.2l6.3-22h-29.7l-7.4,22h30.8Z" fill="#263238" stroke="#fff" stroke-width="2" stroke-linecap="round" stroke-linejoin="round"/><path d="M727.7,613.2l7.2,21.4h31.8l-8.3-21.4h-30.7Z" fill="#263238" stroke="#fff" stroke-width="2" stroke-linecap="round" stroke-linejoin="round"/><path d="M785.7,613.2l-9.4-22h-26.3l8.4,22h27.3Z" fill="#263238" stroke="#fff" stroke-width="2" stroke-linecap="round" stroke-linejoin="round"/><path d="M758.4,613.2l-8.4-22h-29.7l7.4,22h30.7Z" fill="#263238" stroke="#fff" stroke-width="2" stroke-linecap="round" stroke-linejoin="round"/><path d="M648.7,682.2l5.1,26.5h35.3l-6.3-26.5h-34.1Z" fill="#263238" stroke="#fff" stroke-width="2" stroke-linecap="round" stroke-linejoin="round"/><path d="M759.8,708.7h35.3L785,682.2h-34.1l8.9,26.5Z" fill="#263238" stroke="#fff" stroke-width="2" stroke-linecap="round" stroke-linejoin="round"/><path d="M727.7,613.2l-7.4-22h-29.7l6.3,22h30.8Z" fill="#263238" stroke="#fff" stroke-width="2" stroke-linecap="round" stroke-linejoin="round"/><path d="M716.8,682.2l7.7,26.5h35.3l-8.9-26.5h-34.1Z" fill="#263238" stroke="#fff" stroke-width="2" stroke-linecap="round" stroke-linejoin="round"/><path d="M682.8,682.2l6.3,26.5h35.4l-7.7-26.5h-34Z" fill="#263238" stroke="#fff" stroke-width="2" stroke-linecap="round" stroke-linejoin="round"/><path d="M742.6,657.6h32.9l-8.8-23h-31.8l7.7,23Z" fill="#263238" stroke="#fff" stroke-width="2" stroke-linecap="round" stroke-linejoin="round"/><path d="M450.9,613.2l2.1-22h-29.7l-3.2,22h30.8Z" fill="#263238" stroke="#fff" stroke-width="2" stroke-linecap="round" stroke-linejoin="round"/><path d="M696.9,613.2l-6.3-22h-29.7l5.3,22h30.7Z" fill="#263238" stroke="#fff" stroke-width="2" stroke-linecap="round" stroke-linejoin="round"/><path d="M420.1,613.2l3.2-22h-29.7l-4.2,22h30.7Z" fill="#263238" stroke="#fff" stroke-width="2" stroke-linecap="round" stroke-linejoin="round"/><path d="M512.4,613.2v-22h-29.7l-1.1,22h30.8Z" fill="#263238" stroke="#fff" stroke-width="2" stroke-linecap="round" stroke-linejoin="round"/><path d="M389.4,613.2l4.2-22h-29.7l-5.3,22h30.8Z" fill="#263238" stroke="#fff" stroke-width="2" stroke-linecap="round" stroke-linejoin="round"/><path d="M358.6,613.2l5.3-22h-29.7l-6.3,22h30.7Z" fill="#263238" stroke="#fff" stroke-width="2" stroke-linecap="round" stroke-linejoin="round"/><path d="M481.6,613.2l1.1-22h-29.7l-2.1,22h30.7Z" fill="#263238" stroke="#fff" stroke-width="2" stroke-linecap="round" stroke-linejoin="round"/><path d="M666.2,613.2l-5.3-22h-29.7l4.2,22h30.8Z" fill="#263238" stroke="#fff" stroke-width="2" stroke-linecap="round" stroke-linejoin="round"/><path d="M635.4,613.2l-4.2-22h-29.7l3.2,22h30.7Z" fill="#263238" stroke="#fff" stroke-width="2" stroke-linecap="round" stroke-linejoin="round"/><path d="M573.9,613.2l-2.1-22h-29.7l1.1,22h30.7Z" fill="#263238" stroke="#fff" stroke-width="2" stroke-linecap="round" stroke-linejoin="round"/><path d="M648.7,682.2h-34.1-34-34.1-34-34.1-34.1-34-34.1-34.1-34l-7.6,26.5h35.3h35.4h35.3h35.3h35.4h35.3h35.3h35.3h35.4h35.3l-5.1-26.5Z" fill="#263238" stroke="#fff" stroke-width="2" stroke-linecap="round" stroke-linejoin="round"/><path d="M604.7,613.2l-3.2-22h-29.7l2.1,22h30.8Z" fill="#263238" stroke="#fff" stroke-width="2" stroke-linecap="round" stroke-linejoin="round"/></g><path d="M883.6,765.9h-757v-10.8h757v10.8Z" fill="#263238" stroke="#263238" stroke-width="2" stroke-linecap="round" stroke-linejoin="round"/></g></g></g><g transform="translate(0-80.999999)"><g transform="translate(0 63)"><g><g><path d="M282.1,238h33" fill="none" stroke="#263238" stroke-width="6" stroke-linecap="round" stroke-linejoin="round"/><path d="M282.1,255h123.9" fill="none" stroke="#fff" stroke-width="6" stroke-linecap="round" stroke-linejoin="round"/><path d="M473.8,255h123.9" fill="none" stroke="#fff" stroke-width="6" stroke-linecap="round" stroke-linejoin="round"/><path d="M414,255h49.1" fill="none" stroke="#263238" stroke-width="6" stroke-linecap="round" stroke-linejoin="round"/><path d="M282.1,271.9h71.3" fill="none" stroke="#263238" stroke-width="6" stroke-linecap="round" stroke-linejoin="round"/><path d="M362.3,271.9h71.3" fill="none" stroke="#263238" stroke-width="6" stroke-linecap="round" stroke-linejoin="round"/><path d="M442.6,271.9h71.3" fill="none" stroke="#263238" stroke-width="6" stroke-linecap="round" stroke-linejoin="round"/><path d="M522.8,271.9h30.3" fill="none" stroke="#263238" stroke-width="6" stroke-linecap="round" stroke-linejoin="round"/><path d="M324,238h33" fill="none" stroke="#263238" stroke-width="6" stroke-linecap="round" stroke-linejoin="round"/><g><path d="M520.1,238h33" fill="none" stroke="#263238" stroke-width="6" stroke-linecap="round" stroke-linejoin="round"/><path d="M476.4,238h33" fill="none" stroke="#fff" stroke-width="6" stroke-linecap="round" stroke-linejoin="round"/><path d="M365.9,238h96.3" fill="none" stroke="#263238" stroke-width="6" stroke-linecap="round" stroke-linejoin="round"/></g></g><g><path d="M282.1,341.4h33" fill="none" stroke="#263238" stroke-width="6" stroke-linecap="round" stroke-linejoin="round"/><path d="M282.1,358.4h123.9" fill="none" stroke="#fff" stroke-width="6" stroke-linecap="round" stroke-linejoin="round"/><path d="M473.8,358.4h123.9" fill="none" stroke="#263238" stroke-width="6" stroke-linecap="round" stroke-linejoin="round"/><path d="M414,358.4h49.1" fill="none" stroke="#263238" stroke-width="6" stroke-linecap="round" stroke-linejoin="round"/><path d="M282.1,375.3h71.3" fill="none" stroke="#263238" stroke-width="6" stroke-linecap="round" stroke-linejoin="round"/><path d="M362.3,375.3h71.3" fill="none" stroke="#263238" stroke-width="6" stroke-linecap="round" stroke-linejoin="round"/><path d="M442.6,375.3h71.3" fill="none" stroke="#fff" stroke-width="6" stroke-linecap="round" stroke-linejoin="round"/><path d="M522.8,375.3h30.3" fill="none" stroke="#263238" stroke-width="6" stroke-linecap="round" stroke-linejoin="round"/><path d="M324,341.4h33" fill="none" stroke="#263238" stroke-width="6" stroke-linecap="round" stroke-linejoin="round"/><g><path d="M520.1,341.4h33" fill="none" stroke="#263238" stroke-width="6" stroke-linecap="round" stroke-linejoin="round"/><path d="M476.4,341.4h33" fill="none" stroke="#fff" stroke-width="6" stroke-linecap="round" stroke-linejoin="round"/><path d="M365.9,341.4h96.3" fill="none" stroke="#263238" stroke-width="6" stroke-linecap="round" stroke-linejoin="round"/></g></g><g><path d="M282.1,493.9h33" fill="none" stroke="#263238" stroke-width="6" stroke-linecap="round" stroke-linejoin="round"/><path d="M282.1,510.8h123.9" fill="none" stroke="#fff" stroke-width="6" stroke-linecap="round" stroke-linejoin="round"/><path d="M473.8,510.8h123.9" fill="none" stroke="#263238" stroke-width="6" stroke-linecap="round" stroke-linejoin="round"/><path d="M414,510.8h49.1" fill="none" stroke="#263238" stroke-width="6" stroke-linecap="round" stroke-linejoin="round"/><path d="M282.1,527.7h71.3" fill="none" stroke="#263238" stroke-width="6" stroke-linecap="round" stroke-linejoin="round"/><path d="M362.3,527.7h71.3" fill="none" stroke="#263238" stroke-width="6" stroke-linecap="round" stroke-linejoin="round"/><path d="M442.6,527.7h71.3" fill="none" stroke="#fff" stroke-width="6" stroke-linecap="round" stroke-linejoin="round"/><path d="M522.8,527.7h30.3" fill="none" stroke="#263238" stroke-width="6" stroke-linecap="round" stroke-linejoin="round"/><path d="M324,493.9h33" fill="none" stroke="#263238" stroke-width="6" stroke-linecap="round" stroke-linejoin="round"/><g><path d="M520.1,493.9h33" fill="none" stroke="#263238" stroke-width="6" stroke-linecap="round" stroke-linejoin="round"/><path d="M476.4,493.9h33" fill="none" stroke="#fff" stroke-width="6" stroke-linecap="round" stroke-linejoin="round"/><path d="M365.9,493.9h96.3" fill="none" stroke="#263238" stroke-width="6" stroke-linecap="round" stroke-linejoin="round"/></g></g><g><g><path d="M467.5,289.7h33" fill="none" stroke="#263238" stroke-width="6" stroke-linecap="round" stroke-linejoin="round"/><path d="M423.8,289.7h33" fill="none" stroke="#263238" stroke-width="6" stroke-linecap="round" stroke-linejoin="round"/><path d="M313.3,289.7h96.3" fill="none" stroke="#263238" stroke-width="6" stroke-linecap="round" stroke-linejoin="round"/></g><g><path d="M467.5,320.1l33-.1" fill="none" stroke="#263238" stroke-width="6" stroke-linecap="round" stroke-linejoin="round"/><path d="M423.8,320.1l33-.1" fill="none" stroke="#263238" stroke-width="6" stroke-linecap="round" stroke-linejoin="round"/><path d="M313.3,320.1l96.3-.1" fill="none" stroke="#fff" stroke-width="6" stroke-linecap="round" stroke-linejoin="round"/></g><g><path d="M346.3,304.9h-33" fill="none" stroke="#263238" stroke-width="6" stroke-linecap="round" stroke-linejoin="round"/><path d="M390,304.9h-33" fill="none" stroke="#263238" stroke-width="6" stroke-linecap="round" stroke-linejoin="round"/><path d="M500.5,304.9h-96.3" fill="none" stroke="#fff" stroke-width="6" stroke-linecap="round" stroke-linejoin="round"/></g></g><g><g><path d="M467.5,395.8h33" fill="none" stroke="#263238" stroke-width="6" stroke-linecap="round" stroke-linejoin="round"/><path d="M423.8,395.8h33" fill="none" stroke="#263238" stroke-width="6" stroke-linecap="round" stroke-linejoin="round"/><path d="M313.3,395.8h96.3" fill="none" stroke="#263238" stroke-width="6" stroke-linecap="round" stroke-linejoin="round"/></g><g><path d="M467.5,426.1h33" fill="none" stroke="#263238" stroke-width="6" stroke-linecap="round" stroke-linejoin="round"/><path d="M423.8,426.1h33" fill="none" stroke="#263238" stroke-width="6" stroke-linecap="round" stroke-linejoin="round"/><path d="M313.3,426.1h96.3" fill="none" stroke="#fff" stroke-width="6" stroke-linecap="round" stroke-linejoin="round"/></g><g><path d="M346.3,411h-33" fill="none" stroke="#263238" stroke-width="6" stroke-linecap="round" stroke-linejoin="round"/><path d="M390,411h-33" fill="none" stroke="#263238" stroke-width="6" stroke-linecap="round" stroke-linejoin="round"/><path d="M500.5,411h-96.3" fill="none" stroke="#fff" stroke-width="6" stroke-linecap="round" stroke-linejoin="round"/></g></g><g><g><path d="M346.3,444h-33" fill="none" stroke="#263238" stroke-width="6" stroke-linecap="round" stroke-linejoin="round"/><path d="M390,444h-33" fill="none" stroke="#263238" stroke-width="6" stroke-linecap="round" stroke-linejoin="round"/><path d="M500.5,444h-96.3" fill="none" stroke="#fff" stroke-width="6" stroke-linecap="round" stroke-linejoin="round"/></g><g><path d="M346.3,474.3h-33" fill="none" stroke="#263238" stroke-width="6" stroke-linecap="round" stroke-linejoin="round"/><path d="M390,474.3h-33" fill="none" stroke="#263238" stroke-width="6" stroke-linecap="round" stroke-linejoin="round"/><path d="M500.5,474.3h-96.3" fill="none" stroke="#fff" stroke-width="6" stroke-linecap="round" stroke-linejoin="round"/></g><g><path d="M467.5,459.1h33" fill="none" stroke="#263238" stroke-width="6" stroke-linecap="round" stroke-linejoin="round"/><path d="M423.8,459.1h33" fill="none" stroke="#263238" stroke-width="6" stroke-linecap="round" stroke-linejoin="round"/><path d="M313.3,459.1h96.3" fill="none" stroke="#fff" stroke-width="6" stroke-linecap="round" stroke-linejoin="round"/></g></g><g><path d="M269.9,242.6h-10.6v-10.4h10.6v10.4Z" fill="#263238"/><path d="M269.9,259.6h-10.6v-10.4h10.6v10.4Z" fill="#263238"/><path d="M269.9,276.7h-10.6v-10.4h10.6v10.4Z" fill="#263238"/><path d="M269.9,293.8h-10.6v-10.4h10.6v10.4Z" fill="#263238"/><path d="M269.9,310.9h-10.6v-10.4h10.6v10.4Z" fill="#263238"/><path d="M269.9,328h-10.6v-10.4h10.6v10.4Z" fill="#263238"/><path d="M269.9,345.1h-10.6v-10.4h10.6v10.4Z" fill="#263238"/><path d="M269.9,362.2h-10.6v-10.4h10.6v10.4Z" fill="#263238"/><path d="M269.9,379.3h-10.6v-10.4h10.6v10.4Z" fill="#263238"/><path d="M269.9,396.3h-10.6v-10.4h10.6v10.4Z" fill="#263238"/><path d="M269.9,413.4h-10.6v-10.4h10.6v10.4Z" fill="#263238"/><path d="M269.9,430.5h-10.6v-10.4h10.6v10.4Z" fill="#263238"/><path d="M269.9,447.6h-10.6v-10.4h10.6v10.4Z" fill="#263238"/><path d="M269.9,464.7h-10.6v-10.4h10.6v10.4Z" fill="#263238"/><path d="M269.9,481.8h-10.6v-10.4h10.6v10.4Z" fill="#263238"/><path d="M269.9,498.9h-10.6v-10.4h10.6v10.4Z" fill="#263238"/><path d="M269.9,515.9h-10.6v-10.4h10.6v10.4Z" fill="#263238"/><path d="M269.9,533h-10.6v-10.4h10.6v10.4Z" fill="#263238"/></g></g></g><g id="efbsPMYm5LE194_to" style="offset-path:path('M262.561371,733.261385C262.837368,733.261385,259.979202,732.998987,275.588662,732.998987L262.561843,733.261385');offset-rotate:0deg"><g transform="translate(-214.655852,-641.798344)"><g transform="translate(62.006663 34.899994)"><g><path d="M692.6,236.2c-63.1,0-114.4,51.2-114.4,114.3c0,32.5,13.6,61.9,35.4,82.7l-16.3,30.4l39.9-13c16.4,9.1,35.3,14.3,55.4,14.3c63.2,0,114.4-51.2,114.4-114.4c0-63.1-51.2-114.3-114.4-114.3Z" fill="#fff" stroke="#263238" stroke-width="2" stroke-linecap="round" stroke-linejoin="round"/></g></g><g transform="translate(72.756669 49.299995)"><g><path d="M644.3,375.7l-43.9-31.1v-16.4l43.9-31.4v16.6l-31.5,22.9l31.5,22.9v16.5Z" fill="#92e3a9"/><path d="M657.7,381.2l33.5-124.5h14.3L671.8,381.2h-14.1Z" fill="#92e3a9"/><path d="M718.9,375.7v-16.5l31.6-23-31.6-22.8v-16.6L763,328v16.5l-44.1,31.2Z" fill="#92e3a9"/></g><g><path d="M649.8,368.9l-44-31.1v-16.4l44-31.4v16.6l-31.5,22.9l31.5,22.9v16.5Z" fill="#263238"/><path d="M667.1,388.4l33.5-124.5h14.3L681.3,388.4h-14.2Z" fill="#263238"/><path d="M724.3,368.9v-16.5l31.7-23-31.7-22.8v-16.6l44.1,31.2v16.5l-44.1,31.2Z" fill="#263238"/></g></g></g></g></g><g id="efbsPMYm5LE207_to" style="offset-path:path('M500.879252,757.407289L533.17145,770.191744L533.17145,771.403103C533.17145,778.992342,533.09998,760.518803,500.879252,758.260757');offset-rotate:0deg"><g transform="translate(-420.7,-754.250149)"><g transform="translate(-5.620758-2.862939)"><g><g><path d="M718.6,745.6c0,0-18.6-22.7-26.9-37.1-8.2-14.5-19.9-48.2-28.9-68.2-8.9-19.9-22-26.1-37.8-32.3-15.9-6.2-22.1-4.8-22.1-.7s6.2,11.7,6.2,11.7l-26.8,4.8c0,0-11-6.2-17.9-4.1s-20,15.1-20,15.1-13.7-4.8-22-2.7c-8.2,2.1-30.9,13.1-40.6,17.9-9.6,4.8-19.9,5.5-19.3,9.6.7,4.1,10.4,11,19.3,9.7c9-1.4,24.1-6.9,33.7-6.9c9.7,0,14.5,2,19.3,5.5c4.8,3.4,24.8,31.6,27.5,35.1c2.8,3.4,5.5,17.2,5.5,17.2s-12.1-5.2-19.7-12.1c-7.5-6.9-18.4-23-30.8-24.4-12.3-1.4-25.8,9.6-19,15.1c6.9,5.5,13.8,9,18.6,15.2s12.4,24.8,25.5,44.7c13.1,20,41.3,32.4,41.3,32.4l58.5,24c0,0,15.1-35.7,43.3-45.4C713.7,760.1,722,756,722,756l-3.4-10.4Z" fill="#fff" stroke="#263238" stroke-width="2" stroke-linecap="round" stroke-linejoin="round"/><path d="M546.5,635.6c0,0,6.8-1.7,8.7-2.3c1.9-.7,4.2-2.6,4.2-2.6" transform="translate(-83.85 24.962939)" fill="none" stroke="#263238" stroke-width="2" stroke-linecap="round" stroke-linejoin="round"/><path d="M628.4,610.8c0,0,31.7,17.8,40.7,22.6c3.7,2,12.4,6,15.1,15.1c3.1,10.6,9.6,16.4,9.6,16.4" transform="translate(-85 24)" fill="none" stroke="#263238" stroke-width="2" stroke-linecap="round" stroke-linejoin="round"/><path d="M666.3,599.8c0,0,31,24.1,33,24.8c2.1.7,9.7,1.4,13.1,7.6s6.9,13.1,6.9,13.1" transform="translate(-84 24)" fill="none" stroke="#263238" stroke-width="2" stroke-linecap="round" stroke-linejoin="round"/><path d="M693.1,595c0,0,11-2.1,15.2,6.2c4.1,8.3,22,28.2,22,28.2" transform="translate(-84 25)" fill="none" stroke="#263238" stroke-width="2" stroke-linecap="round" stroke-linejoin="round"/><path d="M594.7,683.8c0,0,8.3-4.1,4.1-10.3-4.1-6.2-12.3-6.2-12.3-6.2" transform="translate(-79 18)" fill="none" stroke="#263238" stroke-width="2" stroke-linecap="round" stroke-linejoin="round"/><path d="M723.2,738.7c0,0-37.2,9.6-60.6,35.8-23.4,26.1-23.4,48.2-21.3,51.6c2,3.4,46.8,27.5,46.8,27.5s27.5-53,46.8-66c19.2-13.1,33-16.6,33-16.6s-34.4-22-35.8-24.7c-1.4-2.8-4.1-9.7-8.9-7.6Z" fill="#92e3a9" stroke="#263238" stroke-width="2" stroke-linecap="round" stroke-linejoin="round"/><path d="M833.8,933.8c0,0-37.9-19.2-46.8-24.1-9-4.8-70.2-37.8-70.2-37.8s-7.6-2.1-11.7-4.1c-4.1-2.1-10.3-1.4-13.1-15.9-2.7-14.4,4.1-43.3,35.1-72.2s50.2-27.5,50.2-27.5s13.1-1.4,16.6,1.3c3.4,2.8,4.1,11,7.5,12.4c3.5,1.4,98.7,29.9,98.7,29.9" fill="#92e3a9" stroke="#263238" stroke-width="2" stroke-linecap="round" stroke-linejoin="round"/><path d="M797.7,813.9c0,0-4.1,20.6,5.5,37.8" fill="none" stroke="#263238" stroke-width="2" stroke-linecap="round" stroke-linejoin="round"/><path d="M807.4,840.7c0,0-4.2,1.4,6.9,19.3" fill="none" stroke="#263238" stroke-width="2" stroke-linecap="round" stroke-linejoin="round"/></g></g></g><g><g><path d="M383.3,706.3c0,0-45.4,53.9-59,64.8s-25.9,17.7-25.9,17.7l-49,49.1c0,0,1.4,6.8-12.2,14.9-13.6,8.2-40.9,17.7-47.7,20.5-6.8,2.7-81.7,36.7-81.7,36.7L383.3,706.3Z" fill="#263238" stroke="#263238" stroke-width="2" stroke-linecap="round" stroke-linejoin="round"/><g><path d="M456.7,631.5c-.9,5.7-10.5,10.9-12.8,12.8-2.4,1.9-7.7,4.8-7.7,4.8s7.2,8.6,2.9,14.3-22.9,9.1-32.9,17.2-18.1,16.7-22.9,25.7c-4.8,9.1-22.4,31-44.4,41-21.9,10.1-61,28.2-61,28.2s-28.1-42.9-45.8-52c-17.6-9.1-23.3-11-23.3-11l3.8-5.2c0,0,27.6-40.6,35.3-55.8c7.6-15.3,15.2-39.6,20-47.2c4.8-7.7,30.5-3.8,30.5-3.8s18.6-16.7,24.3-17.7c5.8-.9,28.6,9.1,28.6,9.1s28.2-16.2,34.9-14.8c6.6,1.4,20,29.6,25.2,34.3c5.3,4.8,15.8,12.9,15.8,12.9s17.1,1,21.9-.5c4.8-1.4,8.6,1.9,7.6,7.7ZM405.2,651c0,0-16.7-6.2-20.5-9.1l-9,27.7c0,0,18.6-15.7,29.5-18.6Z" fill="#fff" fill-rule="evenodd" stroke="#263238" stroke-width="2" stroke-linecap="round" stroke-linejoin="round"/><path d="M280.3,631.9c0,0-1.4-8.1-.5-10.9c1-2.9,18.6-20.5,18.6-20.5" fill="none" stroke="#263238" stroke-width="2" stroke-linecap="round" stroke-linejoin="round"/><path d="M295.5,641.5l3.9-12.4l51.9-37.2" fill="none" stroke="#263238" stroke-width="2" stroke-linecap="round" stroke-linejoin="round"/><path d="M321.3,650.5c0,0,1.9-11.9,4.3-13.8s20.5-6.2,20.5-6.2s27.7-23.8,32.4-23.8c4.8,0,39.6,18.6,48.7,17.6" fill="none" stroke="#263238" stroke-width="2" stroke-linecap="round" stroke-linejoin="round"/><path d="M442.4,626.2c0,0-6.2,0-2.8,3.8c3.3,3.9,10.4,2,13.8,1" fill="none" stroke="#263238" stroke-width="2" stroke-linecap="round" stroke-linejoin="round"/><path d="M405.2,651c0,0,17.2-10,31-1.9" fill="none" stroke="#263238" stroke-width="2" stroke-linecap="round" stroke-linejoin="round"/><path d="M431.9,652l-9.5,3.3c0,0,3.8,7.6,4.3,10.5s.5,2.9.5,2.9" fill="none" stroke="#263238" stroke-width="2" stroke-linecap="round" stroke-linejoin="round"/><path d="M375.7,669.6l-8.6,19.1" fill="none" stroke="#263238" stroke-width="2" stroke-linecap="round" stroke-linejoin="round"/><path d="M149.1,743.5c0,0,30.1-19.5,41.1-27.6c10.9-8.1,16.6-6.7,22.4-8.6c5.7-1.9,34.3,6.7,53.4,30.5s17.1,41.5,14.8,46.3c-2.4,4.7-62.5,41-62.5,41s-8.6-34.4-33.9-54.9c-25.2-20.5-35.3-26.7-35.3-26.7Z" fill="#92e3a9" stroke="#263238" stroke-width="2" stroke-linecap="round" stroke-linejoin="round"/><path d="M29,800.6c0,0,55.6-34,64.9-39.6s20-13.2,20-13.2s2.9-14.7,17.1-15.2c14.2-.6,27.8,5,46.4,15.2c18.5,10.1,41.5,47.2,43.9,61.9c2.5,14.7,7.3,19.3,3.4,28.9-3.9,9.7-18.5,10.2-21.4,10.2-3,0-9.8,6.1-9.8,6.1L89,922.9" fill="#92e3a9" stroke="#263238" stroke-width="2" stroke-linecap="round" stroke-linejoin="round"/><path d="M201.7,823c0,0,4.3,3.2-4.4,16.8" fill="none" stroke="#263238" stroke-width="2" stroke-linecap="round" stroke-linejoin="round"/><path d="M195.4,829.4c0,0-.6,14.3-13.7,27.3" fill="none" stroke="#263238" stroke-width="2" stroke-linecap="round" stroke-linejoin="round"/></g></g></g></g></g></svg>
